<?xml version="1.0" standalone="no"?>
<!DOCTYPE svg PUBLIC "-//W3C//DTD SVG 20010904//EN"
 "http://www.w3.org/TR/2001/REC-SVG-20010904/DTD/svg10.dtd">
<svg version="1.0" xmlns="http://www.w3.org/2000/svg"
 width="992.000000pt" height="972.000000pt" viewBox="0 0 992.000000 972.000000"
 preserveAspectRatio="xMidYMid meet">

<g transform="translate(0.000000,972.000000) scale(0.100000,-0.100000)"
fill="#000000" stroke="none">
<path d="M3115 9689 c-459 -148 -1905 -403 -2660 -469 -258 -22 -227 -11 -280
-92 -244 -362 -211 -865 95 -1478 60 -120 139 -260 211 -373 l24 -39 140 6
c369 14 1122 193 1494 354 52 23 95 40 96 39 1 -1 14 -33 30 -72 52 -128 144
-303 210 -400 36 -53 65 -98 65 -101 0 -2 -45 -27 -101 -54 -275 -139 -673
-370 -690 -402 -12 -22 -8 -223 7 -373 l5 -60 -65 -38 c-235 -135 -464 -377
-595 -627 -187 -358 -227 -824 -112 -1296 78 -315 179 -506 360 -676 366 -345
952 -462 1408 -282 92 36 212 108 277 166 l53 47 54 -48 c30 -26 95 -80 144
-121 50 -40 91 -75 93 -79 1 -3 -76 -110 -170 -236 -95 -127 -180 -240 -188
-252 -14 -19 -20 -21 -74 -13 -139 20 -268 -30 -386 -150 -180 -183 -240 -374
-240 -765 0 -586 133 -963 413 -1171 65 -48 164 -84 233 -84 25 0 81 12 126
27 52 17 85 23 93 17 7 -5 48 -40 91 -78 224 -194 514 -338 858 -426 250 -63
346 -75 631 -75 216 1 267 4 379 24 467 83 824 330 926 641 23 71 50 230 50
296 0 38 5 45 63 93 143 121 253 291 298 466 29 113 36 317 15 454 -9 57 -14
106 -11 109 6 6 131 28 300 52 137 19 325 38 595 60 201 16 265 39 357 123
126 115 161 270 103 457 -11 35 -16 67 -12 71 4 4 66 33 137 66 224 101 456
242 665 403 125 96 416 389 511 515 568 747 802 1715 774 3195 -7 354 -14 437
-46 533 -47 142 -169 293 -300 370 -112 66 -196 86 -449 107 -1844 157 -3273
78 -4587 -254 l-172 -43 -49 61 c-295 367 -603 1008 -763 1592 -36 130 -70
190 -137 241 -82 62 -189 78 -297 42z m158 -163 c59 -25 75 -54 131 -242 30
-98 73 -230 95 -292 23 -63 41 -117 41 -121 0 -5 -49 -11 -110 -15 -313 -19
-560 -110 -798 -294 -80 -61 -201 -195 -251 -275 -13 -21 -26 -36 -29 -33 -8
9 17 152 48 272 70 274 201 547 392 816 50 71 76 100 96 105 15 3 95 25 177
49 174 49 166 48 208 30z m-654 -233 c-97 -148 -237 -432 -287 -583 -75 -228
-121 -538 -109 -742 2 -49 3 -88 1 -88 -11 0 -101 151 -140 234 -58 122 -129
339 -149 450 -19 113 -19 328 0 439 8 48 27 126 43 173 l27 87 230 44 c126 24
275 55 330 67 55 13 105 24 112 25 7 1 -19 -47 -58 -106z m-1719 -206 c0 -2
-11 -37 -25 -78 -51 -149 -68 -260 -68 -439 0 -190 20 -309 80 -470 64 -171
186 -399 278 -520 23 -30 44 -60 48 -66 8 -13 -239 -63 -436 -89 -186 -24
-168 -30 -232 80 -162 274 -296 612 -335 842 -43 249 -13 482 83 645 l26 45
108 8 c59 4 173 15 253 25 144 17 220 23 220 17z m3121 -1169 c34 -51 84 -121
110 -155 l49 -62 -63 -17 c-280 -78 -858 -293 -1182 -439 -234 -106 -221 -101
-238 -87 -8 7 -27 30 -42 51 -32 48 -35 42 83 181 250 296 617 546 887 603 40
9 126 16 202 16 l132 1 62 -92z m3790 36 l97 -7 26 -121 c106 -493 123 -971
55 -1521 -60 -482 -173 -745 -439 -1015 -217 -221 -490 -379 -860 -500 -404
-132 -774 -160 -1191 -89 -758 129 -1380 578 -1778 1286 -129 230 -236 542
-296 871 -25 131 -59 382 -53 387 9 9 381 142 553 198 906 297 1891 466 2960
506 270 10 802 13 926 5z m594 -24 c230 -12 685 -46 827 -61 167 -17 258 -60
362 -169 69 -72 121 -177 137 -275 15 -98 16 -1003 1 -1210 -39 -523 -62 -612
-204 -788 -163 -204 -371 -266 -576 -172 l-53 24 41 59 c58 85 73 133 74 232
1 77 -2 92 -31 151 -20 41 -53 85 -86 116 l-53 51 24 48 c66 130 127 352 138
505 l7 86 -226 99 c-125 54 -225 102 -224 106 1 4 92 75 202 159 228 173 215
151 168 288 -78 228 -205 395 -353 465 -55 26 -76 30 -146 30 -72 0 -89 -4
-148 -33 -37 -18 -92 -57 -124 -86 l-58 -54 -13 87 c-13 96 -57 319 -67 346
-6 16 1 17 87 12 52 -4 184 -11 294 -16z m-5130 -830 c3 -41 18 -138 31 -215
84 -481 220 -829 465 -1190 360 -529 868 -894 1462 -1050 596 -156 1168 -114
1742 130 339 144 629 363 805 608 l34 48 27 -61 c41 -90 123 -170 222 -218
113 -55 170 -67 317 -67 149 1 218 17 341 77 l85 43 50 -27 c99 -55 169 -73
289 -72 88 0 122 4 169 22 90 33 161 80 238 155 60 60 68 65 62 40 -137 -588
-324 -1004 -624 -1393 -88 -113 -331 -359 -450 -454 -184 -147 -459 -313 -683
-412 l-108 -48 -16 25 c-37 56 -164 167 -248 216 -187 111 -346 153 -580 154
-195 0 -294 -17 -704 -126 -677 -179 -897 -219 -1216 -219 -153 0 -319 14
-333 29 -2 2 31 82 73 177 86 193 146 365 166 478 19 106 17 319 -4 400 -23
88 -76 193 -134 265 -146 181 -455 345 -650 345 -97 0 -159 -27 -226 -99 -81
-87 -163 -277 -201 -466 -25 -125 -46 -329 -46 -450 0 -169 -26 -249 -112
-348 l-33 -38 -80 64 c-564 448 -998 1087 -1265 1862 -122 354 -206 772 -226
1116 l-7 117 119 70 c332 196 706 386 1094 553 96 42 136 55 141 46 4 -7 10
-46 14 -87z m-1470 -1207 c24 -134 97 -427 145 -574 l39 -122 -40 -59 c-59
-87 -107 -193 -125 -278 -19 -91 -14 -274 11 -365 51 -187 176 -345 335 -423
119 -58 184 -74 327 -77 l122 -3 99 -124 c55 -67 132 -158 172 -201 83 -89 83
-82 -14 -152 -107 -75 -225 -125 -371 -157 -91 -19 -341 -16 -445 6 -304 65
-583 238 -731 452 -153 223 -259 707 -230 1050 33 387 163 669 422 919 81 78
241 204 260 205 4 0 14 -44 24 -97z m305 -1005 c86 -205 216 -452 332 -633 66
-104 65 -105 -50 -81 -209 44 -348 179 -397 387 -17 74 -19 183 -5 259 10 54
58 170 70 170 3 0 26 -46 50 -102z m2085 -332 c88 -24 175 -64 260 -121 140
-93 219 -198 255 -341 60 -234 -19 -526 -257 -945 -56 -99 -59 -108 -49 -139
6 -18 22 -42 36 -52 90 -67 524 -99 840 -62 179 20 437 72 700 140 730 188
794 200 1008 191 145 -6 220 -25 347 -90 118 -60 248 -192 303 -307 92 -192
78 -316 -45 -382 -65 -36 -116 -43 -508 -78 -737 -66 -1166 -158 -1423 -309
-168 -98 -321 -237 -239 -218 12 3 71 24 132 47 60 23 164 57 230 76 138 40
461 108 480 100 7 -2 23 -35 36 -73 21 -60 24 -85 23 -213 -2 -243 -49 -369
-188 -505 -63 -62 -106 -93 -191 -139 -275 -148 -406 -237 -452 -305 -13 -19
-21 -36 -19 -38 2 -2 101 30 219 71 119 42 218 76 221 76 13 0 5 -91 -14 -164
-29 -113 -63 -170 -165 -271 -219 -218 -477 -297 -975 -298 -240 0 -399 18
-596 68 -295 75 -549 205 -779 396 -228 190 -288 297 -354 625 -48 239 -64
387 -64 609 0 421 37 501 520 1143 314 415 332 459 333 762 0 176 13 283 54
441 36 140 62 200 103 249 59 69 116 84 218 56z m-1312 -2013 c2 -5 -9 -53
-25 -108 -88 -304 -102 -672 -37 -1015 37 -192 121 -492 184 -652 9 -24 -54
-35 -107 -19 -75 23 -201 163 -264 296 -97 201 -160 691 -125 957 33 249 122
431 247 508 52 33 118 49 127 33z"/>
<path d="M5105 7597 c-224 -58 -390 -313 -435 -669 -15 -119 -12 -319 5 -455
29 -221 87 -416 180 -608 127 -262 283 -437 474 -533 l94 -47 116 0 c108 0
120 2 176 29 85 42 189 149 242 251 77 151 127 362 121 519 l-3 78 -290 105
c-159 58 -294 109 -298 113 -5 4 86 126 203 270 116 144 216 270 222 280 25
40 -138 313 -268 450 -171 178 -372 259 -539 217z"/>
<path d="M5480 3879 c-261 -10 -412 -41 -377 -76 4 -3 73 -7 154 -9 88 -1 243
-15 383 -33 129 -16 404 -46 610 -66 606 -58 860 -92 1134 -155 72 -17 142
-30 157 -30 25 0 80 33 69 43 -3 2 -86 22 -185 45 -99 22 -300 70 -447 106
-696 169 -941 198 -1498 175z"/>
<path d="M3757 1979 c-60 -10 -184 -25 -275 -34 -196 -19 -236 -28 -257 -58
-25 -35 -19 -92 11 -116 23 -18 41 -21 128 -21 195 0 606 61 655 98 36 26 42
101 12 131 -18 18 -33 21 -93 20 -40 -1 -122 -10 -181 -20z"/>
<path d="M3297 1459 c-41 -31 -50 -62 -32 -105 20 -48 56 -61 215 -73 168 -14
823 -14 869 -1 96 27 111 134 24 168 -18 7 -191 13 -478 17 -247 3 -477 8
-510 11 -52 5 -64 3 -88 -17z"/>
<path d="M3352 1093 c-30 -12 -51 -87 -36 -128 18 -46 303 -134 600 -184 171
-29 208 -28 245 8 45 46 37 106 -20 135 -15 8 -85 24 -156 36 -175 28 -319 61
-451 104 -104 34 -152 41 -182 29z"/>
</g>
</svg>
